<mxfile host="65bd71144e">
    <diagram name="Excel处理现实问题" id="excel-real-problems">
        <mxGraphModel dx="1019" dy="667" grid="1" gridSize="10" guides="1" tooltips="1" connect="1" arrows="1" fold="1" page="1" pageScale="1" pageWidth="1169" pageHeight="827" math="0" shadow="0">
            <root>
                <mxCell id="0"/>
                <mxCell id="1" parent="0"/>
                <mxCell id="center-problem" value="🚨 现实挑战" style="ellipse;whiteSpace=wrap;html=1;fontSize=18;fontStyle=1;fillColor=#ffebee;strokeColor=#f44336;strokeWidth=3;fontColor=#2c3e50;" parent="1" vertex="1">
                    <mxGeometry x="485" y="400" width="200" height="100" as="geometry"/>
                </mxCell>
                <mxCell id="problem1-title" value="❌ Excel 文件排版不一致" style="rounded=1;whiteSpace=wrap;html=1;fontSize=16;fontStyle=1;fillColor=#fff3e0;strokeColor=#ff9800;strokeWidth=2;fontColor=#2c3e50;align=center;" parent="1" vertex="1">
                    <mxGeometry x="80" y="150" width="240" height="50" as="geometry"/>
                </mxCell>
                <mxCell id="3" style="edgeStyle=none;html=1;entryX=0.5;entryY=0;entryDx=0;entryDy=0;shape=flexArrow;" edge="1" parent="1" source="problem1-detail" target="problem1-impact">
                    <mxGeometry relative="1" as="geometry"/>
                </mxCell>
                <mxCell id="problem1-detail" value="• 列标题位置变化&lt;br&gt;• 数据起始行不固定&lt;br&gt;• 列顺序经常调整&lt;br&gt;• 合并单元格影响定位" style="rounded=1;whiteSpace=wrap;html=1;fontSize=17;fillColor=#ffffff;strokeColor=#ff9800;strokeWidth=1;fontColor=#2c3e50;align=left;verticalAlign=top;spacingLeft=15;spacingTop=10;" parent="1" vertex="1">
                    <mxGeometry x="80" y="220" width="240" height="110" as="geometry"/>
                </mxCell>
                <mxCell id="problem1-impact" value="⚠️ 导致后果&lt;br&gt;&lt;br&gt;• 定位特定列的算法不稳定&lt;br&gt;• 数据提取准确率下降&lt;br&gt;• 需要频繁调试修正" style="rounded=1;whiteSpace=wrap;html=1;fontSize=17;fillColor=#ffebee;strokeColor=#f44336;strokeWidth=1;fontColor=#2c3e50;align=left;verticalAlign=top;spacingLeft=15;spacingTop=10;" parent="1" vertex="1">
                    <mxGeometry x="80" y="385" width="240" height="130" as="geometry"/>
                </mxCell>
                <mxCell id="problem2-title" value="❌ 复杂的 Sheet 结构" style="rounded=1;whiteSpace=wrap;html=1;fontSize=16;fontStyle=1;fillColor=#e8f5e8;strokeColor=#4caf50;strokeWidth=2;fontColor=#2c3e50;align=center;" parent="1" vertex="1">
                    <mxGeometry x="870" y="150" width="210" height="50" as="geometry"/>
                </mxCell>
                <mxCell id="4" value="" style="edgeStyle=none;html=1;shape=flexArrow;" edge="1" parent="1" source="problem2-detail" target="problem2-impact">
                    <mxGeometry relative="1" as="geometry"/>
                </mxCell>
                <mxCell id="problem2-detail" value="• 一个 sheet 包含多个逻辑区域&lt;br&gt;• 用颜色边框模拟分区&lt;br&gt;• 区域边界不规则&lt;br&gt;• 数据分布复杂" style="rounded=1;whiteSpace=wrap;html=1;fontSize=17;fillColor=#ffffff;strokeColor=#4caf50;strokeWidth=1;fontColor=#2c3e50;align=left;verticalAlign=top;spacingLeft=15;spacingTop=10;" parent="1" vertex="1">
                    <mxGeometry x="860" y="210" width="220" height="130" as="geometry"/>
                </mxCell>
                <mxCell id="problem2-impact" value="⚠️ 导致后果&lt;br&gt;&lt;br&gt;• 判断列结束位置困难&lt;br&gt;• 数据范围识别复杂&lt;br&gt;• 需要复杂的解析逻辑" style="rounded=1;whiteSpace=wrap;html=1;fontSize=17;fillColor=#ffebee;strokeColor=#f44336;strokeWidth=1;fontColor=#2c3e50;align=left;verticalAlign=top;spacingLeft=15;spacingTop=10;" parent="1" vertex="1">
                    <mxGeometry x="860" y="379" width="220" height="140" as="geometry"/>
                </mxCell>
                <mxCell id="example-title" value="📊 典型复杂结构示例" style="text;html=1;strokeColor=none;fillColor=none;align=center;verticalAlign=middle;whiteSpace=wrap;rounded=0;fontSize=16;fontStyle=1;fontColor=#2c3e50;" parent="1" vertex="1">
                    <mxGeometry x="460" y="500" width="240" height="30" as="geometry"/>
                </mxCell>
                <mxCell id="arrow1" value="不稳定的算法" style="endArrow=classic;html=1;rounded=1;strokeColor=#ff9800;strokeWidth=2;curved=0;exitX=1;exitY=0.5;exitDx=0;exitDy=0;entryX=0;entryY=0.5;entryDx=0;entryDy=0;fontSize=18;" parent="1" source="problem1-impact" target="center-problem" edge="1">
                    <mxGeometry x="-0.0968" y="20" width="50" height="50" relative="1" as="geometry">
                        <mxPoint x="400" y="400" as="sourcePoint"/>
                        <mxPoint x="450" y="350" as="targetPoint"/>
                        <Array as="points"/>
                        <mxPoint as="offset"/>
                    </mxGeometry>
                </mxCell>
                <mxCell id="arrow2" value="复杂的解析" style="endArrow=classic;html=1;rounded=1;strokeColor=#4caf50;strokeWidth=2;curved=0;exitX=0;exitY=0.5;exitDx=0;exitDy=0;entryX=1;entryY=0.5;entryDx=0;entryDy=0;fontSize=18;" parent="1" source="problem2-impact" target="center-problem" edge="1">
                    <mxGeometry x="0.0286" y="-20" width="50" height="50" relative="1" as="geometry">
                        <mxPoint x="750" y="400" as="sourcePoint"/>
                        <mxPoint x="800" y="350" as="targetPoint"/>
                        <Array as="points"/>
                        <mxPoint as="offset"/>
                    </mxGeometry>
                </mxCell>
                <mxCell id="annotation1" value="💥 颜色边框分区" style="text;html=1;strokeColor=none;fillColor=#ffebee;align=left;verticalAlign=middle;whiteSpace=wrap;rounded=1;fontSize=14;fontColor=#d32f2f;" parent="1" vertex="1">
                    <mxGeometry x="670" y="580" width="120" height="30" as="geometry"/>
                </mxCell>
                <mxCell id="annotation2" value="💥 数据混合" style="text;html=1;strokeColor=none;fillColor=#ffebee;align=left;verticalAlign=middle;whiteSpace=wrap;rounded=1;fontSize=14;fontColor=#d32f2f;" parent="1" vertex="1">
                    <mxGeometry x="670" y="640" width="120" height="30" as="geometry"/>
                </mxCell>
                <mxCell id="2" value="" style="group" vertex="1" connectable="0" parent="1">
                    <mxGeometry x="80" y="560" width="560" height="200" as="geometry"/>
                </mxCell>
                <mxCell id="excel-demo" value="" style="rounded=0;whiteSpace=wrap;html=1;strokeColor=#cccccc;fillColor=#ffffff;" parent="2" vertex="1">
                    <mxGeometry width="560" height="200" as="geometry"/>
                </mxCell>
                <mxCell id="area1" value="区域1：订单信息" style="rounded=0;whiteSpace=wrap;html=1;fillColor=#e3f2fd;strokeColor=#1976d2;strokeWidth=2;fontSize=12;fontStyle=1;" parent="2" vertex="1">
                    <mxGeometry x="20" y="20" width="240" height="30" as="geometry"/>
                </mxCell>
                <mxCell id="area1-data" value="&lt;span style=&quot;background-color: rgb(153, 204, 255);&quot;&gt;&amp;nbsp; &amp;nbsp; &amp;nbsp; &amp;nbsp; &amp;nbsp; 订单号&amp;nbsp; &amp;nbsp; &amp;nbsp; &lt;/span&gt;&amp;nbsp;|&amp;nbsp; &amp;nbsp; &amp;nbsp; &amp;nbsp; &amp;nbsp; &amp;nbsp;数量&amp;nbsp; &amp;nbsp; &amp;nbsp; &amp;nbsp;|&amp;nbsp; &amp;nbsp; 完成☑" style="rounded=0;whiteSpace=wrap;html=1;fillColor=#ffffff;strokeColor=#1976d2;fontSize=10;align=left;" parent="2" vertex="1">
                    <mxGeometry x="20" y="50" width="240" height="50" as="geometry"/>
                </mxCell>
                <mxCell id="area2" value="区域2：库存信息" style="rounded=0;whiteSpace=wrap;html=1;fillColor=#fff3e0;strokeColor=#f57c00;strokeWidth=2;fontSize=12;fontStyle=1;" parent="2" vertex="1">
                    <mxGeometry x="280" y="20" width="260" height="30" as="geometry"/>
                </mxCell>
                <mxCell id="area2-data" value="&lt;span style=&quot;background-color: rgb(204, 255, 255);&quot;&gt;商品&amp;nbsp; &amp;nbsp; &amp;nbsp; &amp;nbsp; &amp;nbsp; &amp;nbsp; &amp;nbsp; &lt;/span&gt;&amp;nbsp;|&amp;nbsp; &amp;nbsp; &amp;nbsp; &amp;nbsp;库存数量&amp;nbsp; &amp;nbsp; |&amp;nbsp; &amp;nbsp; &amp;nbsp; &amp;nbsp; &amp;nbsp; &amp;nbsp; &amp;nbsp;状态" style="rounded=0;whiteSpace=wrap;html=1;fillColor=#ffffff;strokeColor=#f57c00;fontSize=10;align=left;" parent="2" vertex="1">
                    <mxGeometry x="280" y="50" width="260" height="50" as="geometry"/>
                </mxCell>
                <mxCell id="area3" value="区域3：汇总数据" style="rounded=0;whiteSpace=wrap;html=1;fillColor=#e8f5e8;strokeColor=#4caf50;strokeWidth=2;fontSize=12;fontStyle=1;" parent="2" vertex="1">
                    <mxGeometry x="20" y="120" width="520" height="30" as="geometry"/>
                </mxCell>
                <mxCell id="area3-data" value="&lt;span style=&quot;background-color: rgb(102, 178, 255);&quot;&gt;总计&amp;nbsp; &amp;nbsp; &amp;nbsp; &amp;nbsp; &amp;nbsp; &amp;nbsp; &amp;nbsp; &amp;nbsp; &amp;nbsp; &amp;nbsp; &amp;nbsp; &amp;nbsp; &amp;nbsp; &amp;nbsp; &amp;nbsp; &amp;nbsp; &amp;nbsp; &amp;nbsp; &amp;nbsp; &amp;nbsp; &amp;nbsp; &amp;nbsp; &amp;nbsp; &lt;/span&gt;&amp;nbsp;|&lt;span style=&quot;background-color: rgb(204, 204, 255);&quot;&gt;&amp;nbsp; &amp;nbsp; &amp;nbsp; &amp;nbsp; &amp;nbsp; &amp;nbsp; &amp;nbsp; &amp;nbsp; &amp;nbsp; &amp;nbsp; &amp;nbsp; &amp;nbsp; &amp;nbsp; &amp;nbsp; &amp;nbsp; &amp;nbsp; &amp;nbsp; &amp;nbsp; &amp;nbsp; &amp;nbsp; &amp;nbsp; &amp;nbsp; &amp;nbsp; &amp;nbsp; &amp;nbsp;完成率 &lt;/span&gt;|&amp;nbsp;&lt;span style=&quot;background-color: rgb(255, 204, 255);&quot;&gt; &amp;nbsp; &amp;nbsp; &amp;nbsp; &amp;nbsp; &amp;nbsp; &amp;nbsp; &amp;nbsp; &amp;nbsp; &amp;nbsp; &amp;nbsp; &amp;nbsp; &amp;nbsp; &amp;nbsp; &amp;nbsp; &amp;nbsp; &amp;nbsp; &amp;nbsp; &amp;nbsp; &amp;nbsp; 备注信息&lt;/span&gt;" style="rounded=0;whiteSpace=wrap;html=1;fillColor=#ffffff;strokeColor=#4caf50;fontSize=10;align=left;" parent="2" vertex="1">
                    <mxGeometry x="20" y="150" width="520" height="30" as="geometry"/>
                </mxCell>
            </root>
        </mxGraphModel>
    </diagram>
</mxfile>